<?xml version="1.0" encoding="utf-8"?>
<!-- Generator: Adobe Illustrator 21.0.0, SVG Export Plug-In . SVG Version: 6.00 Build 0)  -->
<svg version="1.1" id="Capa_1" xmlns="http://www.w3.org/2000/svg" xmlns:xlink="http://www.w3.org/1999/xlink" x="0px" y="0px"
	 viewBox="0 0 512 512" style="enable-background:new 0 0 512 512;" xml:space="preserve">
<style type="text/css">
	.st0{fill:url(#SVGID_1_);}
	.st1{fill:none;}
	.st2{fill:url(#SVGID_2_);}
	.st3{fill:url(#SVGID_3_);}
	.st4{fill:url(#SVGID_4_);}
	.st5{fill:url(#SVGID_5_);}
	.st6{fill:url(#SVGID_6_);}
	.st7{fill:url(#SVGID_7_);}
	.st8{fill:url(#SVGID_8_);}
	.st9{fill:url(#SVGID_9_);}
	.st10{fill:url(#SVGID_10_);}
	.st11{fill:url(#SVGID_11_);}
	.st12{fill:url(#SVGID_12_);}
	.st13{fill:url(#SVGID_13_);}
	.st14{fill:url(#SVGID_14_);}
	.st15{fill:url(#SVGID_15_);}
	.st16{fill:url(#SVGID_16_);}
	.st17{fill:url(#SVGID_17_);}
	.st18{fill:url(#SVGID_18_);}
	.st19{fill:url(#SVGID_19_);}
	.st20{fill:url(#SVGID_20_);}
</style>
<linearGradient id="SVGID_1_" gradientUnits="userSpaceOnUse" x1="-707.2614" y1="388.8206" x2="930.2153" y2="388.8206">
	<stop  offset="0" style="stop-color:#01D0FB"/>
	<stop  offset="0.6075" style="stop-color:#0F6FFF"/>
	<stop  offset="1" style="stop-color:#0B62E4"/>
</linearGradient>
<path class="st0" d="M500.9,284.4c-2.2-5.5-7.6-9.4-13.9-9.4H376.7h-66.3H277c-4.9,0-9.5,2.4-12.3,6.5c-2.8,4-3.4,9.2-1.7,13.8
	l29.6,79.5c14.1,10.3,23.3,27,23.3,45.9c0,4-0.7,7.8-1.9,11.4l22.7,60.9c1.4,3.7,4.2,6.7,7.9,8.4c3.6,1.7,7.7,1.8,11.5,0.4
	c25-9.4,47.6-23.1,67.2-40.1c-9.3,2.6-19.8-4.2-19.8-15.1c0-8.6-7-15.6-15.6-15.6c-13.6,0-20.3-16.4-10.8-26l24.2-24.2
	c18.7-18.7,44.1-29.3,70.6-29.3h20.9c5.4-19.6,8.2-40.3,8.2-61.7C501,287.9,501,286.2,500.9,284.4z"/>
<path class="st1" d="M492.8,351.4h0.6C499,331.7,502,311,502,290c0-2-0.4-3.9-1.1-5.6c0.1,1.8,0.1,3.6,0.1,5.4
	C501,311.1,498.1,331.8,492.8,351.4z"/>
<linearGradient id="SVGID_2_" gradientUnits="userSpaceOnUse" x1="41.1839" y1="112.3075" x2="493.7987" y2="112.3075" gradientTransform="matrix(1.0039 0 0 -1.0039 9.019744e-02 516.1059)">
	<stop  offset="0" style="stop-color:#01D0FB"/>
	<stop  offset="0.6075" style="stop-color:#26A6FE"/>
	<stop  offset="1" style="stop-color:#0182FC"/>
</linearGradient>
<path class="st2" d="M292.6,374.7L314,432c1.2-3.6,1.9-7.4,1.9-11.4C315.9,401.8,306.7,385.1,292.6,374.7z"/>
<linearGradient id="SVGID_3_" gradientUnits="userSpaceOnUse" x1="50.261" y1="112.3075" x2="311.5674" y2="112.3075" gradientTransform="matrix(1.0039 0 0 -1.0039 9.019744e-02 516.1059)">
	<stop  offset="0" style="stop-color:#B0E7C9"/>
	<stop  offset="0.593" style="stop-color:#46CC8D"/>
	<stop  offset="1" style="stop-color:#0AB69F"/>
</linearGradient>
<path class="st3" d="M292.6,374.7L314,432c1.2-3.6,1.9-7.4,1.9-11.4C315.9,401.8,306.7,385.1,292.6,374.7z"/>
<linearGradient id="SVGID_4_" gradientUnits="userSpaceOnUse" x1="351.3338" y1="139.3157" x2="473.4622" y2="139.3157" gradientTransform="matrix(1.0039 0 0 -1.0039 9.019744e-02 516.1059)">
	<stop  offset="0" style="stop-color:#B0E7C9"/>
	<stop  offset="0.593" style="stop-color:#46CC8D"/>
	<stop  offset="1" style="stop-color:#0AB69F"/>
</linearGradient>
<path class="st4" d="M492.8,351.4c-4.8,17.5-11.6,34.2-20.2,49.7c8.8-15.6,15.8-32.3,20.8-49.7H492.8z"/>
<linearGradient id="SVGID_5_" gradientUnits="userSpaceOnUse" x1="41.1839" y1="108.9159" x2="493.7987" y2="108.9159" gradientTransform="matrix(1.0039 0 0 -1.0039 9.019744e-02 516.1059)">
	<stop  offset="0" style="stop-color:#01D0FB"/>
	<stop  offset="0.6075" style="stop-color:#26A6FE"/>
	<stop  offset="1" style="stop-color:#0182FC"/>
</linearGradient>
<path class="st5" d="M471.8,351.4c-26.5,0-51.9,10.5-70.6,29.3L377,404.8c-9.6,9.6-2.8,26,10.8,26c8.6,0,15.6,7,15.6,15.6
	c0,10.9,10.5,17.8,19.8,15.1c19.8-17.2,36.5-37.7,49.4-60.5c8.6-15.5,15.4-32.2,20.2-49.7H471.8z"/>
<linearGradient id="SVGID_6_" gradientUnits="userSpaceOnUse" x1="351.3338" y1="108.9159" x2="473.4622" y2="108.9159" gradientTransform="matrix(1.0039 0 0 -1.0039 9.019744e-02 516.1059)">
	<stop  offset="0" style="stop-color:#B0E7C9"/>
	<stop  offset="0.593" style="stop-color:#D2CC8D"/>
	<stop  offset="1" style="stop-color:#0AB69F"/>
</linearGradient>
<path class="st6" d="M471.8,351.4c-26.5,0-51.9,10.5-70.6,29.3L377,404.8c-9.6,9.6-2.8,26,10.8,26c8.6,0,15.6,7,15.6,15.6
	c0,10.9,10.5,17.8,19.8,15.1c19.8-17.2,36.5-37.7,49.4-60.5c8.6-15.5,15.4-32.2,20.2-49.7H471.8z"/>
<linearGradient id="SVGID_7_" gradientUnits="userSpaceOnUse" x1="-671.8425" y1="188.6184" x2="904.1066" y2="188.6184">
	<stop  offset="0" style="stop-color:#01D0FB"/>
	<stop  offset="0.6075" style="stop-color:#0F6FFF"/>
	<stop  offset="1" style="stop-color:#0B62E4"/>
</linearGradient>
<path class="st7" d="M488.1,186.9c-2.3-6.8-4.9-13.4-7.8-19.9c-0.3,31.9-26,61.1-61.7,61.1l0,0h-5.6c-11.2,0-20.3-9.1-20.3-20.3
	c0-23.8-9.4-46.6-26.3-63.4c-11.4-11.4-29.8-11.4-41.2,0c-11.4,11.4-29.8,11.4-41.2,0L256,116.2V246c0,8.3,6.7,15,15,15h210
	c8.3,0,15-6.7,15-15C496,225.6,493.2,205.7,488.1,186.9z"/>
<linearGradient id="SVGID_8_" gradientUnits="userSpaceOnUse" x1="42.8469" y1="352.3067" x2="129.4319" y2="352.3067" gradientTransform="matrix(1.0039 0 0 -1.0039 9.019744e-02 516.1059)">
	<stop  offset="0" style="stop-color:#B0E7C9"/>
	<stop  offset="0.593" style="stop-color:#46CC8D"/>
	<stop  offset="1" style="stop-color:#0AB69F"/>
</linearGradient>
<circle class="st8" cx="84.3" cy="162.4" r="32.3"/>
<path class="st1" d="M274.3,23c0.3,0,0.5,0,0.8,0c0.7,0,1.4,0,2.1,0c31.2,0,60.9,6.4,87.8,17.8C336.4,27.5,304.5,20,271,20
	c-3.7,0-7,1.3-9.6,3.5C265.6,23.2,269.9,23,274.3,23z"/>
<path class="st1" d="M480.3,167c2.9,6.5,5.5,13.1,7.8,19.9c-2.2-8.1-4.8-16.1-7.9-23.8C480.3,164.4,480.3,165.7,480.3,167z"/>
<linearGradient id="SVGID_9_" gradientUnits="userSpaceOnUse" x1="41.9123" y1="489.757" x2="490.993" y2="489.757" gradientTransform="matrix(1.0039 0 0 -1.0039 9.019744e-02 516.1059)">
	<stop  offset="0" style="stop-color:#01D0FB"/>
	<stop  offset="0.6075" style="stop-color:#26A6FE"/>
	<stop  offset="1" style="stop-color:#0182FC"/>
</linearGradient>
<path class="st9" d="M261.4,23.5c-0.8,0.7-1.6,1.5-2.3,2.4c4.7-1.8,9.8-2.8,15.2-2.9C269.9,23,265.6,23.2,261.4,23.5z"/>
<linearGradient id="SVGID_10_" gradientUnits="userSpaceOnUse" x1="211.0819" y1="491.2266" x2="469.8199" y2="491.2266" gradientTransform="matrix(1.0039 0 0 -1.0039 9.019744e-02 516.1059)">
	<stop  offset="0" style="stop-color:#B0E7C9"/>
	<stop  offset="0.593" style="stop-color:#46CC8D"/>
	<stop  offset="1" style="stop-color:#0AB69F"/>
</linearGradient>
<path class="st10" d="M275,22.9c-0.3,0-0.5,0-0.8,0c1,0,1.9,0,2.9,0C276.4,22.9,275.7,22.9,275,22.9z"/>
<linearGradient id="SVGID_11_" gradientUnits="userSpaceOnUse" x1="41.9123" y1="389.0797" x2="490.993" y2="389.0797" gradientTransform="matrix(1.0039 0 0 -1.0039 9.019744e-02 516.1059)">
	<stop  offset="0" style="stop-color:#01D0FB"/>
	<stop  offset="0.6075" style="stop-color:#26A6FE"/>
	<stop  offset="1" style="stop-color:#0182FC"/>
</linearGradient>
<path class="st11" d="M325.3,144.3c11.4-11.4,29.8-11.4,41.2,0c16.8,16.8,26.3,39.6,26.3,63.4c0,11.2,9.1,20.3,20.3,20.3h5.6l0,0
	c35.7,0,61.4-29.2,61.7-61.1c-37.9-84-129-143.5-203.2-144c-1,0-1.9,0-2.9,0c-5.3,0.1-10.4,1.1-15.2,2.9c-1.9,2.5-3.1,5.7-3.1,9.1
	v81.2l28.1,28.1C295.5,155.7,313.9,155.7,325.3,144.3z"/>
<linearGradient id="SVGID_12_" gradientUnits="userSpaceOnUse" x1="211.0819" y1="389.0797" x2="469.8199" y2="389.0797" gradientTransform="matrix(1.0039 0 0 -1.0039 9.019744e-02 516.1059)">
	<stop  offset="0" style="stop-color:#B0E7C9"/>
	<stop  offset="0.593" style="stop-color:#D2CC8D"/>
	<stop  offset="1" style="stop-color:#0AB69F"/>
</linearGradient>
<path class="st12" d="M325.3,144.3c11.4-11.4,29.8-11.4,41.2,0c16.8,16.8,26.3,39.6,26.3,63.4c0,11.2,9.1,20.3,20.3,20.3h5.6l0,0
	c35.7,0,61.4-29.2,61.7-61.1c-37.9-84-129-143.5-203.2-144c-1,0-1.9,0-2.9,0c-5.3,0.1-10.4,1.1-15.2,2.9c-1.9,2.5-3.1,5.7-3.1,9.1
	v81.2l28.1,28.1C295.5,155.7,313.9,155.7,325.3,144.3z"/>
<g>
	<path class="st1" d="M0.1,292c0-0.7,0-1.5,0-2.2C0.1,290.5,0.1,291.2,0.1,292z"/>
	<path class="st1" d="M3.6,246.4c0.1-0.4,0.2-0.9,0.2-1.3C3.7,245.6,3.6,246,3.6,246.4z"/>
	<path class="st1" d="M0,286c0,0.1,0,0.2,0,0.2c0-13.2,1.2-26.1,3.3-38.6C1.2,260.1,0,272.9,0,286z"/>
	<path class="st1" d="M227,61c-0.2,0-0.4,0-0.6,0c0.3,0,0.6,0,0.9,0C227.2,61,227.1,61,227,61z"/>
	<path class="st1" d="M226.3,512c0.2,0,0.5,0,0.7,0c27.2,0,53.7-4.8,79-14.3c1.5-0.6,2.9-1.4,4.1-2.3
		C284.4,506,256.1,511.9,226.3,512z"/>
	<linearGradient id="SVGID_13_" gradientUnits="userSpaceOnUse" x1="-10.5286" y1="286.5287" x2="442.3213" y2="286.5287">
		<stop  offset="0" style="stop-color:#01D0FB"/>
		<stop  offset="0.6075" style="stop-color:#0F6FFF"/>
		<stop  offset="1" style="stop-color:#0B62E4"/>
	</linearGradient>
	<path class="st13" d="M314.8,478.4L242,283.3v-94c-3.5-1.4-6.7-3.5-9.5-6.4l-41.9-41.9c-8.8-8.8-13.7-20.7-13.7-33.2
		c0-25.2,19.9-45.7,44.9-46.8C113.9,63.6,23.1,142.2,3.8,245.1c-0.1,0.4-0.2,0.9-0.2,1.3c-0.1,0.4-0.1,0.8-0.2,1.2
		C1.2,260.2,0,273.1,0,286.2c0,1.2,0,2.3,0,3.5c0,0.7,0,1.5,0,2.2c0.4,14.6,2.2,28.8,5.3,42.6c-3.2-21.7,4.2-43.8,19.9-59.5
		c27.4-27.4,71.8-27.4,99.1,0l14.8,14.8v0c7.7,7.7,12.1,18.2,12.1,29.2c0,22.8,18.5,41.3,41.3,41.3h13.7c31.3,0,56.7,25.4,56.7,56.7
		c0,19.3-15.6,35-35,35c-15.6,0-30.5,6.2-41.5,17.2c-18.3,18.3-45.4,23.6-68.8,14.5c32.3,17.9,69.4,28.2,108.6,28.4
		c29.8-0.1,58.1-6,83.8-16.6C315,491.4,317.1,484.6,314.8,478.4z M66.3,239.9c-15.7,0-28.4-12.7-28.4-28.4
		c0-15.7,12.7-28.4,28.4-28.4s28.4,12.7,28.4,28.4C94.7,227.1,82,239.9,66.3,239.9z"/>
	
		<linearGradient id="SVGID_14_" gradientUnits="userSpaceOnUse" x1="-10.5773" y1="144.3597" x2="440.5036" y2="144.3597" gradientTransform="matrix(1.0039 0 0 -1.0039 9.019744e-02 516.1059)">
		<stop  offset="0" style="stop-color:#01D0FB"/>
		<stop  offset="0.6075" style="stop-color:#26A6FE"/>
		<stop  offset="1" style="stop-color:#0182FC"/>
	</linearGradient>
	<path class="st14" d="M186.5,469.1c11-11,26-17.2,41.5-17.2c19.3,0,35-15.6,35-35c0-31.3-25.4-56.7-56.7-56.7h-13.7
		c-22.8,0-41.3-18.5-41.3-41.3c0-10.9-4.3-21.4-12.1-29.2v0L124.4,275c-27.4-27.4-71.8-27.4-99.1,0C9.5,290.7,2.2,312.8,5.4,334.5
		c1.4,6.2,3,12.3,4.9,18.3C18,374.2,30.8,392.1,44,411c15.5,22.3,33,44,54.4,60.7c6.2,4.3,12.6,8.3,19.3,12
		C141.1,492.6,168.2,487.4,186.5,469.1z"/>
	
		<linearGradient id="SVGID_15_" gradientUnits="userSpaceOnUse" x1="-1.5309" y1="144.3597" x2="258.8898" y2="144.3597" gradientTransform="matrix(1.0039 0 0 -1.0039 9.019744e-02 516.1059)">
		<stop  offset="0" style="stop-color:#B0E7C9"/>
		<stop  offset="0.593" style="stop-color:#D2CC8D"/>
		<stop  offset="1" style="stop-color:#0AB69F"/>
	</linearGradient>
	<path class="st15" d="M186.5,469.1c11-11,26-17.2,41.5-17.2c19.3,0,35-15.6,35-35c0-31.3-25.4-56.7-56.7-56.7h-13.7
		c-22.8,0-41.3-18.5-41.3-41.3c0-10.9-4.3-21.4-12.1-29.2v0L124.4,275c-27.4-27.4-71.8-27.4-99.1,0C9.5,290.7,2.2,312.8,5.4,334.5
		c1.4,6.2,3,12.3,4.9,18.3C18,374.2,30.8,392.1,44,411c15.5,22.3,33,44,54.4,60.7c6.2,4.3,12.6,8.3,19.3,12
		C141.1,492.6,168.2,487.4,186.5,469.1z"/>
	
		<linearGradient id="SVGID_16_" gradientUnits="userSpaceOnUse" x1="159.3457" y1="453.294" x2="419.2362" y2="453.294" gradientTransform="matrix(1.0039 0 0 -1.0039 9.019744e-02 516.1059)">
		<stop  offset="0" style="stop-color:#B0E7C9"/>
		<stop  offset="0.593" style="stop-color:#46CC8D"/>
		<stop  offset="1" style="stop-color:#0AB69F"/>
	</linearGradient>
	<path class="st16" d="M227.3,61c-0.3,0-0.6,0-0.9,0c-0.1,0-0.2,0-0.4,0c0.7,0,1.4,0,2.2,0C227.9,61,227.6,61,227.3,61z"/>
	
		<linearGradient id="SVGID_17_" gradientUnits="userSpaceOnUse" x1="-10.5773" y1="389.4282" x2="440.5036" y2="389.4282" gradientTransform="matrix(1.0039 0 0 -1.0039 9.019744e-02 516.1059)">
		<stop  offset="0" style="stop-color:#01D0FB"/>
		<stop  offset="0.6075" style="stop-color:#26A6FE"/>
		<stop  offset="1" style="stop-color:#0182FC"/>
	</linearGradient>
	<path class="st17" d="M176.9,107.9c0,12.4,4.9,24.4,13.7,33.2l41.9,41.9c2.8,2.8,6.1,4.9,9.5,6.4V76c0-7.9-6.1-14.3-13.8-14.9
		c-0.7,0-1.4,0-2.2,0c-1.4,0-2.9,0-4.3,0.1C196.7,62.2,176.9,82.7,176.9,107.9z"/>
	
		<linearGradient id="SVGID_18_" gradientUnits="userSpaceOnUse" x1="159.3457" y1="389.4282" x2="419.2362" y2="389.4282" gradientTransform="matrix(1.0039 0 0 -1.0039 9.019744e-02 516.1059)">
		<stop  offset="0" style="stop-color:#B0E7C9"/>
		<stop  offset="0.593" style="stop-color:#D2CC8D"/>
		<stop  offset="1" style="stop-color:#0AB69F"/>
	</linearGradient>
	<path class="st18" d="M176.9,107.9c0,12.4,4.9,24.4,13.7,33.2l41.9,41.9c2.8,2.8,6.1,4.9,9.5,6.4V76c0-7.9-6.1-14.3-13.8-14.9
		c-0.7,0-1.4,0-2.2,0c-1.4,0-2.9,0-4.3,0.1C196.7,62.2,176.9,82.7,176.9,107.9z"/>
	
		<linearGradient id="SVGID_19_" gradientUnits="userSpaceOnUse" x1="-10.5773" y1="303.4843" x2="440.5036" y2="303.4843" gradientTransform="matrix(1.0039 0 0 -1.0039 9.019744e-02 516.1059)">
		<stop  offset="0" style="stop-color:#01D0FB"/>
		<stop  offset="0.6075" style="stop-color:#26A6FE"/>
		<stop  offset="1" style="stop-color:#0182FC"/>
	</linearGradient>
	<circle class="st19" cx="66.3" cy="211.4" r="28.4"/>
	
		<linearGradient id="SVGID_20_" gradientUnits="userSpaceOnUse" x1="29.8594" y1="303.4843" x2="106.1286" y2="303.4843" gradientTransform="matrix(1.0039 0 0 -1.0039 9.019744e-02 516.1059)">
		<stop  offset="0" style="stop-color:#B0E7C9"/>
		<stop  offset="0.593" style="stop-color:#D2CC8D"/>
		<stop  offset="1" style="stop-color:#0AB69F"/>
	</linearGradient>
	<circle class="st20" cx="66.3" cy="211.4" r="28.4"/>
</g>
</svg>
