<?xml version="1.0" encoding="iso-8859-1"?>
<!-- Generator: Adobe Illustrator 19.0.0, SVG Export Plug-In . SVG Version: 6.00 Build 0)  -->
<svg version="1.1" id="Capa_1" xmlns="http://www.w3.org/2000/svg" xmlns:xlink="http://www.w3.org/1999/xlink" x="0px" y="0px"
	 viewBox="0 0 512.001 512.001" style="enable-background:new 0 0 512.001 512.001;" xml:space="preserve">
<g>
	<g>
		<path d="M480.555,311.285l-59.975-239.9c-0.926-3.703-3.335-6.954-6.349-8.922L324.415,2.586c-4.235-2.836-8.521-2.589-8.42-2.574
			c-2.375,0.003-4.75,0.61-6.695,1.583L129.268,91.61c-3.026,1.513-5.683,4.246-7.08,7.509L32.173,309.156
			c-2.147,5.007-1.414,11.059,2.212,15.452l150.026,182.031c0.084,0.102,0.18,0.19,0.267,0.29c2.813,3.24,6.92,5.073,11.329,5.073
			c0.011,0,0.021-0.001,0.032-0.001H376.02c5.707,0,10.919-3.138,13.448-8.252l90.015-182.031c0.008-0.016,0.014-0.033,0.021-0.049
			C481.14,318.322,481.408,314.531,480.555,311.285z M331.012,43.046l47.966,31.977l-47.966,31.977V43.046z M301.007,39.288v90.746
			l-73.628,98.171l-70.201-117.002L301.007,39.288z M138.21,137.907l65.297,108.829L72.913,290.267L138.21,137.907z M185.39,460.648
			L71.439,322.388l136.74-45.581L185.39,460.648z M366.702,482.094H212.967l25.831-208.374l205.536,51.384L366.702,482.094z
			 M251.552,245.981l74.917-99.889l70.164-46.776l48.782,195.131L251.552,245.981z"/>
	</g>
</g>
<g>
</g>
<g>
</g>
<g>
</g>
<g>
</g>
<g>
</g>
<g>
</g>
<g>
</g>
<g>
</g>
<g>
</g>
<g>
</g>
<g>
</g>
<g>
</g>
<g>
</g>
<g>
</g>
<g>
</g>
</svg>
