<?xml version="1.0" encoding="utf-8"?>
<!-- Generator: Adobe Illustrator 21.0.0, SVG Export Plug-In . SVG Version: 6.00 Build 0)  -->
<svg version="1.1" id="Capa_1" xmlns="http://www.w3.org/2000/svg" xmlns:xlink="http://www.w3.org/1999/xlink" x="0px" y="0px"
	 viewBox="0 0 512 512" style="enable-background:new 0 0 512 512;" xml:space="preserve">
<style type="text/css">
	.st0{fill:url(#SVGID_1_);}
	.st1{fill:url(#SVGID_2_);}
	.st2{fill:url(#SVGID_3_);}
	.st3{fill:url(#SVGID_4_);}
	.st4{fill:url(#SVGID_5_);}
	.st5{fill:url(#SVGID_6_);}
	.st6{fill:url(#SVGID_7_);}
	.st7{fill:url(#SVGID_8_);}
	.st8{fill:url(#SVGID_9_);}
	.st9{fill:url(#SVGID_10_);}
	.st10{fill:url(#SVGID_11_);}
	.st11{fill:url(#SVGID_12_);}
	.st12{fill:url(#SVGID_13_);}
	.st13{fill:url(#SVGID_14_);}
	.st14{fill:url(#SVGID_15_);}
	.st15{fill:url(#SVGID_16_);}
	.st16{fill:url(#SVGID_17_);}
	.st17{fill:url(#SVGID_18_);}
	.st18{fill:url(#SVGID_19_);}
	.st19{fill:url(#SVGID_20_);}
	.st20{fill:url(#SVGID_21_);}
	.st21{fill:url(#SVGID_22_);}
	.st22{fill:url(#SVGID_23_);}
	.st23{fill:url(#SVGID_24_);}
	.st24{fill:url(#SVGID_25_);}
	.st25{fill:url(#SVGID_26_);}
	.st26{fill:url(#SVGID_27_);}
	.st27{fill:url(#SVGID_28_);}
	.st28{fill:url(#SVGID_29_);}
	.st29{fill:url(#SVGID_30_);}
	.st30{fill:url(#SVGID_31_);}
	.st31{fill:url(#SVGID_32_);}
	.st32{fill:url(#SVGID_33_);}
	.st33{fill:url(#SVGID_34_);}
	.st34{fill:url(#SVGID_35_);}
	.st35{fill:url(#SVGID_36_);}
	.st36{fill:url(#SVGID_37_);}
	.st37{fill:url(#SVGID_38_);}
	.st38{fill:url(#SVGID_39_);}
</style>
<g>
	
		<linearGradient id="SVGID_1_" gradientUnits="userSpaceOnUse" x1="74.9807" y1="76.9807" x2="437.0193" y2="439.0193" gradientTransform="matrix(1 0 0 -1 0 514)">
		<stop  offset="0.1" style="stop-color:#FF195E"/>
		<stop  offset="1" style="stop-color:#FFC5A3"/>
	</linearGradient>
	<circle class="st0" cx="256" cy="256" r="256"/>
	
		<radialGradient id="SVGID_2_" cx="256" cy="258" r="256" gradientTransform="matrix(1 0 0 -1 0 514)" gradientUnits="userSpaceOnUse">
		<stop  offset="0" style="stop-color:#FF195E"/>
		<stop  offset="9.300000e-02" style="stop-color:#FF2466;stop-opacity:0.907"/>
		<stop  offset="0.2545" style="stop-color:#FF417A;stop-opacity:0.746"/>
		<stop  offset="0.4652" style="stop-color:#FF6F9A;stop-opacity:0.535"/>
		<stop  offset="0.717" style="stop-color:#FFAFC7;stop-opacity:0.283"/>
		<stop  offset="1" style="stop-color:#FFFFFF;stop-opacity:0"/>
	</radialGradient>
	<circle class="st1" cx="256" cy="256" r="256"/>
	
		<linearGradient id="SVGID_3_" gradientUnits="userSpaceOnUse" x1="149.4358" y1="281.5952" x2="448.4718" y2="580.6301" gradientTransform="matrix(1 0 0 -1 0 514)">
		<stop  offset="0" style="stop-color:#FF79A2"/>
		<stop  offset="0.2845" style="stop-color:#FFA1C0"/>
		<stop  offset="0.5908" style="stop-color:#FFC5DA"/>
		<stop  offset="0.8403" style="stop-color:#FFDBEB"/>
		<stop  offset="1" style="stop-color:#FFE3F1"/>
	</linearGradient>
	<path class="st2" d="M294.3,178.6c-25.6-0.6-51.1-0.6-76.7,0c0-10.2,0.1-20.4,0.1-30.6c-5-20.2-10-40.3-14.9-60.1
		c35.4-2.7,70.8-2.7,106.2,0c-4.9,19.9-9.9,39.9-14.9,60.1C294.3,158.2,294.3,168.4,294.3,178.6L294.3,178.6z"/>
	
		<linearGradient id="SVGID_4_" gradientUnits="userSpaceOnUse" x1="255.9985" y1="343.261" x2="255.9985" y2="435.9863" gradientTransform="matrix(1 0 0 -1 0 514)">
		<stop  offset="0" style="stop-color:#FF195E"/>
		<stop  offset="6.950000e-02" style="stop-color:#FF3364;stop-opacity:0.931"/>
		<stop  offset="0.1512" style="stop-color:#FF4968;stop-opacity:0.849"/>
		<stop  offset="0.2478" style="stop-color:#FF5A6C;stop-opacity:0.752"/>
		<stop  offset="0.3672" style="stop-color:#FF656E;stop-opacity:0.633"/>
		<stop  offset="0.5348" style="stop-color:#FF6C70;stop-opacity:0.465"/>
		<stop  offset="1" style="stop-color:#FF6E70;stop-opacity:0"/>
	</linearGradient>
	<path class="st3" d="M294.3,178.6c-25.6-0.6-51.1-0.6-76.7,0c0.1-30.6,0.2-61.1,0.4-91.7c25.3-1.4,50.6-1.4,75.9,0
		C294.1,117.4,294.2,148,294.3,178.6z"/>
	
		<linearGradient id="SVGID_5_" gradientUnits="userSpaceOnUse" x1="154.1569" y1="311.5041" x2="338.8579" y2="496.204" gradientTransform="matrix(1 0 0 -1 0 514)">
		<stop  offset="0" style="stop-color:#FF79A2"/>
		<stop  offset="0.2845" style="stop-color:#FFA1C0"/>
		<stop  offset="0.5908" style="stop-color:#FFC5DA"/>
		<stop  offset="0.8403" style="stop-color:#FFDBEB"/>
		<stop  offset="1" style="stop-color:#FFE3F1"/>
	</linearGradient>
	<path class="st4" d="M278.6,47.9c-0.1-12.7-10.2-23.5-22.6-23.5c-12.4,0-22.5,10.8-22.6,23.5c-0.2,38.4-0.3,76.7-0.4,115.1
		c15.3-0.3,30.6-0.3,45.9,0C278.9,124.6,278.8,86.2,278.6,47.9z"/>
	
		<linearGradient id="SVGID_6_" gradientUnits="userSpaceOnUse" x1="-42.5153" y1="-11.0997" x2="372.5828" y2="403.9983" gradientTransform="matrix(1 0 0 -1 0 514)">
		<stop  offset="0" style="stop-color:#FF79A2"/>
		<stop  offset="0.2845" style="stop-color:#FFA1C0"/>
		<stop  offset="0.5908" style="stop-color:#FFC5DA"/>
		<stop  offset="0.8403" style="stop-color:#FFDBEB"/>
		<stop  offset="1" style="stop-color:#FFE3F1"/>
	</linearGradient>
	<path class="st5" d="M325.6,186.3c-10.5-12.7-20.9-25.5-31.4-38.3c-5.1-0.2-10.2-0.3-15.3-0.4c0.1,29.3,0.1,58.5,0.1,87.8
		c17.9-10.2,35.8-20.1,53.7-29.5C332.8,198.8,330.2,192,325.6,186.3z"/>
	
		<linearGradient id="SVGID_7_" gradientUnits="userSpaceOnUse" x1="134.9088" y1="212.4543" x2="336.5457" y2="414.0912" gradientTransform="matrix(1 0 0 -1 0 514)">
		<stop  offset="0" style="stop-color:#FF79A2"/>
		<stop  offset="0.2845" style="stop-color:#FFA1C0"/>
		<stop  offset="0.5908" style="stop-color:#FFC5DA"/>
		<stop  offset="0.8403" style="stop-color:#FFDBEB"/>
		<stop  offset="1" style="stop-color:#FFE3F1"/>
	</linearGradient>
	<path class="st6" d="M278.9,147.6c-20.4-0.4-40.8-0.3-61.2,0.4c-10.4,12.8-20.9,25.6-31.4,38.3c-4.6,5.6-7.2,12.5-7.2,19.5
		c25.5,14.2,51.2,29.5,76.8,44.9c15.4-15.4,30.7-30.7,46.1-45.7c0-7.1-1.5-14.1-4.3-19.6C291.5,172.8,285.2,160.2,278.9,147.6
		L278.9,147.6z"/>
	
		<linearGradient id="SVGID_8_" gradientUnits="userSpaceOnUse" x1="147.2389" y1="-59.2499" x2="358.9939" y2="152.5051" gradientTransform="matrix(1 0 0 -1 0 514)">
		<stop  offset="0" style="stop-color:#FF79A2"/>
		<stop  offset="0.2845" style="stop-color:#FFA1C0"/>
		<stop  offset="0.5908" style="stop-color:#FFC5DA"/>
		<stop  offset="0.8403" style="stop-color:#FFDBEB"/>
		<stop  offset="1" style="stop-color:#FFE3F1"/>
	</linearGradient>
	<path class="st7" d="M301.8,378.9c-15.5,36.3-30.8,72.8-45.8,108.7c1.7,0,3.5-0.3,5.1-0.9c40.7-15.6,70.7-59.5,71.2-104.6
		c0-1.7,0-3.4,0-5.1C322.2,377.8,312,378.5,301.8,378.9L301.8,378.9z"/>
	
		<linearGradient id="SVGID_9_" gradientUnits="userSpaceOnUse" x1="154.6692" y1="16.4228" x2="350.5792" y2="212.3318" gradientTransform="matrix(1 0 0 -1 0 514)">
		<stop  offset="0" style="stop-color:#FF79A2"/>
		<stop  offset="0.2845" style="stop-color:#FFA1C0"/>
		<stop  offset="0.5908" style="stop-color:#FFC5DA"/>
		<stop  offset="0.8403" style="stop-color:#FFDBEB"/>
		<stop  offset="1" style="stop-color:#FFE3F1"/>
	</linearGradient>
	<path class="st8" d="M179.7,377c0,1.7,0,3.4,0,5.1c0.5,45.1,30.5,89,71.2,104.6c1.7,0.6,3.4,0.9,5.1,0.9c1,0,2.1-0.3,3.1-0.9
		c24.4-15.1,42.4-56.4,42.7-102.6c0-1.7,0-3.5,0-5.2C261.1,380.9,220.4,380.2,179.7,377L179.7,377z"/>
	
		<linearGradient id="SVGID_10_" gradientUnits="userSpaceOnUse" x1="194.283" y1="58.709" x2="336.286" y2="200.712" gradientTransform="matrix(1 0 0 -1 0 514)">
		<stop  offset="5.600000e-03" style="stop-color:#FF6E70"/>
		<stop  offset="0.1497" style="stop-color:#FF787B"/>
		<stop  offset="0.3998" style="stop-color:#FF9197"/>
		<stop  offset="0.7235" style="stop-color:#FFBBC5"/>
		<stop  offset="1" style="stop-color:#FFE3F1"/>
	</linearGradient>
	<path class="st9" d="M271.3,318.5c10.2,20.4,20.4,40.6,30.5,60.5c10.2-0.5,20.4-1.1,30.5-1.9c0.1-10,0.2-20,0.2-30
		C312.2,338.2,291.8,328.5,271.3,318.5L271.3,318.5z"/>
	
		<linearGradient id="SVGID_11_" gradientUnits="userSpaceOnUse" x1="156.0733" y1="66.4897" x2="349.2903" y2="259.7057" gradientTransform="matrix(1 0 0 -1 0 514)">
		<stop  offset="5.600000e-03" style="stop-color:#FF6E70"/>
		<stop  offset="0.1497" style="stop-color:#FF787B"/>
		<stop  offset="0.3998" style="stop-color:#FF9197"/>
		<stop  offset="0.7235" style="stop-color:#FFBBC5"/>
		<stop  offset="1" style="stop-color:#FFE3F1"/>
	</linearGradient>
	<path class="st10" d="M302.1,302.7c-41,16-81.9,31.7-122.6,44.3c0.1,10,0.1,20,0.2,30c40.7,3.2,81.4,3.9,122.1,1.9
		C301.9,353.5,302,328.1,302.1,302.7L302.1,302.7z"/>
	
		<linearGradient id="SVGID_12_" gradientUnits="userSpaceOnUse" x1="106.0444" y1="320.6416" x2="281.8764" y2="496.4736" gradientTransform="matrix(1 0 0 -1 0 514)">
		<stop  offset="0" style="stop-color:#FF79A2"/>
		<stop  offset="0.2845" style="stop-color:#FFA1C0"/>
		<stop  offset="0.5908" style="stop-color:#FFC5DA"/>
		<stop  offset="0.8403" style="stop-color:#FFDBEB"/>
		<stop  offset="1" style="stop-color:#FFE3F1"/>
	</linearGradient>
	<path class="st11" d="M218.3,48.7c0.1-8.4-6.6-14.8-14.9-14c-8.3,0.9-15.1,8.5-15.2,16.8c-0.2,18.4-0.5,36.9-0.6,55.3
		c-0.1,8,3.1,15.4,8.7,20.7c7.1,6.7,14.3,13.5,21.5,20.5C217.9,114.9,218.1,81.8,218.3,48.7z"/>
	
		<linearGradient id="SVGID_13_" gradientUnits="userSpaceOnUse" x1="225.6956" y1="349.9484" x2="342.9406" y2="467.1934" gradientTransform="matrix(1 0 0 -1 0 514)">
		<stop  offset="0" style="stop-color:#FF79A2"/>
		<stop  offset="0.2845" style="stop-color:#FFA1C0"/>
		<stop  offset="0.5908" style="stop-color:#FFC5DA"/>
		<stop  offset="0.8403" style="stop-color:#FFDBEB"/>
		<stop  offset="1" style="stop-color:#FFE3F1"/>
	</linearGradient>
	<path class="st12" d="M293.7,48.7c-0.1-8.4,6.6-14.8,14.9-14c8.3,0.9,15.1,8.5,15.2,16.8c0.2,18.4,0.5,36.9,0.6,55.3
		c0.1,8-3.1,15.4-8.7,20.7c-7.1,6.7-14.3,13.5-21.5,20.5C294.1,114.9,293.9,81.8,293.7,48.7L293.7,48.7z"/>
	
		<linearGradient id="SVGID_14_" gradientUnits="userSpaceOnUse" x1="191.2028" y1="111.8532" x2="380.7657" y2="301.4163" gradientTransform="matrix(1 0 0 -1 0 514)">
		<stop  offset="0" style="stop-color:#FFB5D3"/>
		<stop  offset="7.550000e-02" style="stop-color:#FFBDD8"/>
		<stop  offset="0.4714" style="stop-color:#FFE1ED"/>
		<stop  offset="0.7937" style="stop-color:#FFF7FA"/>
		<stop  offset="1" style="stop-color:#FFFFFF"/>
	</linearGradient>
	<path class="st13" d="M332.8,205.9c0.2,47,0.1,94.1-0.2,141.1c-10.2,0.6-20.4,1.1-30.6,1.5c-15.2-23.4-30.6-47.4-45.9-71.5
		c15.4-24.1,30.8-48.3,46.1-71.9C312.3,205.3,322.5,205.5,332.8,205.9L332.8,205.9z"/>
	
		<linearGradient id="SVGID_15_" gradientUnits="userSpaceOnUse" x1="61.799" y1="58.061" x2="316.508" y2="312.77" gradientTransform="matrix(1 0 0 -1 0 514)">
		<stop  offset="0" style="stop-color:#FF79A2"/>
		<stop  offset="0.2845" style="stop-color:#FFA1C0"/>
		<stop  offset="0.5908" style="stop-color:#FFC5DA"/>
		<stop  offset="0.8403" style="stop-color:#FFDBEB"/>
		<stop  offset="1" style="stop-color:#FFE3F1"/>
	</linearGradient>
	<path class="st14" d="M179.2,205.9c-0.2,47-0.1,94.1,0.2,141.1c40.8,2.4,81.7,2.9,122.5,1.5c0.2-47.8,0.2-95.6,0.1-143.4
		C261.1,204.3,220.2,204.5,179.2,205.9L179.2,205.9z"/>
	
		<linearGradient id="SVGID_16_" gradientUnits="userSpaceOnUse" x1="402.2989" y1="402.5369" x2="402.2989" y2="452.9931" gradientTransform="matrix(1 0 0 -1 0 514)">
		<stop  offset="0" style="stop-color:#FF195E"/>
		<stop  offset="6.950000e-02" style="stop-color:#FF3364;stop-opacity:0.931"/>
		<stop  offset="0.1512" style="stop-color:#FF4968;stop-opacity:0.849"/>
		<stop  offset="0.2478" style="stop-color:#FF5A6C;stop-opacity:0.752"/>
		<stop  offset="0.3672" style="stop-color:#FF656E;stop-opacity:0.633"/>
		<stop  offset="0.5348" style="stop-color:#FF6C70;stop-opacity:0.465"/>
		<stop  offset="1" style="stop-color:#FF6E70;stop-opacity:0"/>
	</linearGradient>
	<path class="st15" d="M423.2,115.7c-13.9-0.3-27.8-0.3-41.7,0c0-16.6,0.1-33.3,0.2-49.9c13.8-0.8,27.5-0.8,41.3,0
		C423,82.5,423.1,99.1,423.2,115.7z"/>
	
		<linearGradient id="SVGID_17_" gradientUnits="userSpaceOnUse" x1="346.8821" y1="385.2565" x2="447.3867" y2="485.7605" gradientTransform="matrix(1 0 0 -1 0 514)">
		<stop  offset="0" style="stop-color:#FF79A2"/>
		<stop  offset="0.2845" style="stop-color:#FFA1C0"/>
		<stop  offset="0.5908" style="stop-color:#FFC5DA"/>
		<stop  offset="0.8403" style="stop-color:#FFDBEB"/>
		<stop  offset="1" style="stop-color:#FFE3F1"/>
	</linearGradient>
	<path class="st16" d="M414.6,44.6c0-6.9-5.5-12.8-12.3-12.8c-6.8,0-12.3,5.9-12.3,12.8c-0.1,20.9-0.2,41.7-0.2,62.6
		c8.3-0.1,16.7-0.1,25,0C414.8,86.3,414.7,65.5,414.6,44.6z"/>
	
		<linearGradient id="SVGID_18_" gradientUnits="userSpaceOnUse" x1="239.8634" y1="209.7124" x2="465.7379" y2="435.5869" gradientTransform="matrix(1 0 0 -1 0 514)">
		<stop  offset="0" style="stop-color:#FF79A2"/>
		<stop  offset="0.2845" style="stop-color:#FFA1C0"/>
		<stop  offset="0.5908" style="stop-color:#FFC5DA"/>
		<stop  offset="0.8403" style="stop-color:#FFDBEB"/>
		<stop  offset="1" style="stop-color:#FFE3F1"/>
	</linearGradient>
	<path class="st17" d="M440.2,120c-5.7-6.9-11.4-13.9-17.1-20.9c-2.8-0.1-5.5-0.2-8.3-0.2c0,15.9,0.1,31.9,0.1,47.8
		c9.8-5.5,19.5-11,29.2-16.1C444.1,126.8,442.7,123,440.2,120z"/>
	
		<linearGradient id="SVGID_19_" gradientUnits="userSpaceOnUse" x1="336.4082" y1="331.3588" x2="446.1285" y2="441.079" gradientTransform="matrix(1 0 0 -1 0 514)">
		<stop  offset="0" style="stop-color:#FF79A2"/>
		<stop  offset="0.2845" style="stop-color:#FFA1C0"/>
		<stop  offset="0.5908" style="stop-color:#FFC5DA"/>
		<stop  offset="0.8403" style="stop-color:#FFDBEB"/>
		<stop  offset="1" style="stop-color:#FFE3F1"/>
	</linearGradient>
	<path class="st18" d="M414.8,98.9c-11.1-0.2-22.2-0.2-33.3,0.2c-5.7,7-11.4,14-17.1,20.9c-2.5,3.1-3.9,6.8-3.9,10.6
		c13.9,7.7,27.8,16.1,41.8,24.4c8.4-8.4,16.7-16.7,25.1-24.9c0-3.9-0.8-7.7-2.3-10.7C421.6,112.6,418.2,105.7,414.8,98.9L414.8,98.9
		z"/>
	
		<linearGradient id="SVGID_20_" gradientUnits="userSpaceOnUse" x1="343.1176" y1="183.5116" x2="458.3436" y2="298.7376" gradientTransform="matrix(1 0 0 -1 0 514)">
		<stop  offset="0" style="stop-color:#FF79A2"/>
		<stop  offset="0.2845" style="stop-color:#FFA1C0"/>
		<stop  offset="0.5908" style="stop-color:#FFC5DA"/>
		<stop  offset="0.8403" style="stop-color:#FFDBEB"/>
		<stop  offset="1" style="stop-color:#FFE3F1"/>
	</linearGradient>
	<path class="st19" d="M427.2,224.8c-8.4,19.7-16.8,39.6-24.9,59.2c0.9,0,1.9-0.2,2.8-0.5c22.1-8.5,38.5-32.4,38.7-56.9
		c0-0.9,0-1.9,0-2.8C438.3,224.1,432.8,224.5,427.2,224.8L427.2,224.8z"/>
	
		<linearGradient id="SVGID_21_" gradientUnits="userSpaceOnUse" x1="347.1608" y1="224.6887" x2="453.7647" y2="331.2921" gradientTransform="matrix(1 0 0 -1 0 514)">
		<stop  offset="0" style="stop-color:#FF79A2"/>
		<stop  offset="0.2845" style="stop-color:#FFA1C0"/>
		<stop  offset="0.5908" style="stop-color:#FFC5DA"/>
		<stop  offset="0.8403" style="stop-color:#FFDBEB"/>
		<stop  offset="1" style="stop-color:#FFE3F1"/>
	</linearGradient>
	<path class="st20" d="M360.8,223.7c0,0.9,0,1.9,0,2.8c0.3,24.6,16.6,48.4,38.7,56.9c0.9,0.3,1.8,0.5,2.8,0.5c0.6,0,1.1-0.2,1.7-0.5
		c13.3-8.2,23.1-30.7,23.2-55.8c0-0.9,0-1.9,0-2.8C405.1,225.8,382.9,225.5,360.8,223.7L360.8,223.7z"/>
	
		<linearGradient id="SVGID_22_" gradientUnits="userSpaceOnUse" x1="368.7166" y1="247.6987" x2="445.9872" y2="324.9693" gradientTransform="matrix(1 0 0 -1 0 514)">
		<stop  offset="5.600000e-03" style="stop-color:#FF6E70"/>
		<stop  offset="0.1497" style="stop-color:#FF787B"/>
		<stop  offset="0.3998" style="stop-color:#FF9197"/>
		<stop  offset="0.7235" style="stop-color:#FFBBC5"/>
		<stop  offset="1" style="stop-color:#FFE3F1"/>
	</linearGradient>
	<path class="st21" d="M410.7,191.8c5.6,11.1,11.1,22.1,16.6,32.9c5.5-0.3,11.1-0.6,16.6-1.1c0-5.4,0.1-10.9,0.1-16.3
		C432.9,202.6,421.8,197.3,410.7,191.8L410.7,191.8z"/>
	
		<linearGradient id="SVGID_23_" gradientUnits="userSpaceOnUse" x1="347.9248" y1="251.9325" x2="453.0634" y2="357.0705" gradientTransform="matrix(1 0 0 -1 0 514)">
		<stop  offset="5.600000e-03" style="stop-color:#FF6E70"/>
		<stop  offset="0.1497" style="stop-color:#FF787B"/>
		<stop  offset="0.3998" style="stop-color:#FF9197"/>
		<stop  offset="0.7235" style="stop-color:#FFBBC5"/>
		<stop  offset="1" style="stop-color:#FFE3F1"/>
	</linearGradient>
	<path class="st22" d="M427.4,183.3c-22.3,8.7-44.6,17.2-66.7,24.1c0,5.4,0.1,10.9,0.1,16.3c22.2,1.8,44.3,2.1,66.5,1.1
		C427.3,210.9,427.3,197.1,427.4,183.3L427.4,183.3z"/>
	
		<linearGradient id="SVGID_24_" gradientUnits="userSpaceOnUse" x1="320.7017" y1="390.2286" x2="416.3803" y2="485.9072" gradientTransform="matrix(1 0 0 -1 0 514)">
		<stop  offset="0" style="stop-color:#FF79A2"/>
		<stop  offset="0.2845" style="stop-color:#FFA1C0"/>
		<stop  offset="0.5908" style="stop-color:#FFC5DA"/>
		<stop  offset="0.8403" style="stop-color:#FFDBEB"/>
		<stop  offset="1" style="stop-color:#FFE3F1"/>
	</linearGradient>
	<path class="st23" d="M381.8,45c0-4.6-3.6-8.1-8.1-7.6c-4.5,0.5-8.2,4.6-8.3,9.2c-0.1,10-0.3,20.1-0.3,30.1c0,4.4,1.7,8.4,4.8,11.3
		c3.9,3.6,7.8,7.3,11.7,11.1C381.6,81.1,381.7,63.1,381.8,45z"/>
	
		<linearGradient id="SVGID_25_" gradientUnits="userSpaceOnUse" x1="385.8097" y1="406.1758" x2="449.6083" y2="469.9744" gradientTransform="matrix(1 0 0 -1 0 514)">
		<stop  offset="0" style="stop-color:#FF79A2"/>
		<stop  offset="0.2845" style="stop-color:#FFA1C0"/>
		<stop  offset="0.5908" style="stop-color:#FFC5DA"/>
		<stop  offset="0.8403" style="stop-color:#FFDBEB"/>
		<stop  offset="1" style="stop-color:#FFE3F1"/>
	</linearGradient>
	<path class="st24" d="M422.8,45c0-4.6,3.6-8.1,8.1-7.6c4.5,0.5,8.2,4.6,8.3,9.2c0.1,10,0.3,20.1,0.3,30.1c0,4.3-1.7,8.4-4.8,11.3
		c-3.9,3.6-7.8,7.3-11.7,11.1C423,81.1,422.9,63.1,422.8,45L422.8,45z"/>
	
		<linearGradient id="SVGID_26_" gradientUnits="userSpaceOnUse" x1="367.0405" y1="276.617" x2="470.1907" y2="379.7672" gradientTransform="matrix(1 0 0 -1 0 514)">
		<stop  offset="0" style="stop-color:#FFB5D3"/>
		<stop  offset="7.550000e-02" style="stop-color:#FFBDD8"/>
		<stop  offset="0.4714" style="stop-color:#FFE1ED"/>
		<stop  offset="0.7937" style="stop-color:#FFF7FA"/>
		<stop  offset="1" style="stop-color:#FFFFFF"/>
	</linearGradient>
	<path class="st25" d="M444.1,130.6c0.1,25.6,0.1,51.2-0.1,76.8c-5.6,0.3-11.1,0.6-16.7,0.8c-8.3-12.7-16.6-25.8-25-38.9
		c8.4-13.1,16.7-26.3,25.1-39.1C432.9,130.2,438.5,130.4,444.1,130.6L444.1,130.6z"/>
	
		<linearGradient id="SVGID_27_" gradientUnits="userSpaceOnUse" x1="296.6257" y1="247.346" x2="435.225" y2="385.9453" gradientTransform="matrix(1 0 0 -1 0 514)">
		<stop  offset="0" style="stop-color:#FF79A2"/>
		<stop  offset="0.2845" style="stop-color:#FFA1C0"/>
		<stop  offset="0.5908" style="stop-color:#FFC5DA"/>
		<stop  offset="0.8403" style="stop-color:#FFDBEB"/>
		<stop  offset="1" style="stop-color:#FFE3F1"/>
	</linearGradient>
	<path class="st26" d="M360.5,130.6c-0.1,25.6-0.1,51.2,0.1,76.8c22.2,1.3,44.4,1.6,66.7,0.8c0.1-26,0.1-52,0.1-78
		C405.1,129.7,382.8,129.8,360.5,130.6L360.5,130.6z"/>
	
		<linearGradient id="SVGID_28_" gradientUnits="userSpaceOnUse" x1="104.5316" y1="255.5482" x2="104.5316" y2="295.9131" gradientTransform="matrix(1 0 0 -1 0 514)">
		<stop  offset="0" style="stop-color:#FF195E"/>
		<stop  offset="6.950000e-02" style="stop-color:#FF3364;stop-opacity:0.931"/>
		<stop  offset="0.1512" style="stop-color:#FF4968;stop-opacity:0.849"/>
		<stop  offset="0.2478" style="stop-color:#FF5A6C;stop-opacity:0.752"/>
		<stop  offset="0.3672" style="stop-color:#FF656E;stop-opacity:0.633"/>
		<stop  offset="0.5348" style="stop-color:#FF6C70;stop-opacity:0.465"/>
		<stop  offset="1" style="stop-color:#FF6E70;stop-opacity:0"/>
	</linearGradient>
	<path class="st27" d="M121.2,261.9c-11.1-0.3-22.2-0.3-33.4,0c0-13.3,0.1-26.6,0.2-39.9c11-0.6,22-0.6,33,0
		C121.1,235.3,121.2,248.6,121.2,261.9z"/>
	
		<linearGradient id="SVGID_29_" gradientUnits="userSpaceOnUse" x1="60.1981" y1="241.7238" x2="140.6018" y2="322.1271" gradientTransform="matrix(1 0 0 -1 0 514)">
		<stop  offset="0" style="stop-color:#FF79A2"/>
		<stop  offset="0.2845" style="stop-color:#FFA1C0"/>
		<stop  offset="0.5908" style="stop-color:#FFC5DA"/>
		<stop  offset="0.8403" style="stop-color:#FFDBEB"/>
		<stop  offset="1" style="stop-color:#FFE3F1"/>
	</linearGradient>
	<path class="st28" d="M114.4,205c0-5.5-4.4-10.2-9.8-10.2c-5.4,0-9.8,4.7-9.8,10.2c-0.1,16.7-0.1,33.4-0.2,50.1
		c6.7-0.1,13.3-0.1,20,0C114.5,238.4,114.4,221.7,114.4,205z"/>
	
		<linearGradient id="SVGID_30_" gradientUnits="userSpaceOnUse" x1="-25.417" y1="101.2884" x2="155.2829" y2="281.9882" gradientTransform="matrix(1 0 0 -1 0 514)">
		<stop  offset="0" style="stop-color:#FF79A2"/>
		<stop  offset="0.2845" style="stop-color:#FFA1C0"/>
		<stop  offset="0.5908" style="stop-color:#FFC5DA"/>
		<stop  offset="0.8403" style="stop-color:#FFDBEB"/>
		<stop  offset="1" style="stop-color:#FFE3F1"/>
	</linearGradient>
	<path class="st29" d="M134.8,265.2c-4.6-5.5-9.1-11.1-13.7-16.7c-2.2-0.1-4.4-0.1-6.7-0.2c0,12.7,0,25.5,0.1,38.2
		c7.8-4.4,15.6-8.8,23.4-12.9C137.9,270.7,136.8,267.7,134.8,265.2z"/>
	
		<linearGradient id="SVGID_31_" gradientUnits="userSpaceOnUse" x1="51.819" y1="198.6056" x2="139.5953" y2="286.3819" gradientTransform="matrix(1 0 0 -1 0 514)">
		<stop  offset="0" style="stop-color:#FF79A2"/>
		<stop  offset="0.2845" style="stop-color:#FFA1C0"/>
		<stop  offset="0.5908" style="stop-color:#FFC5DA"/>
		<stop  offset="0.8403" style="stop-color:#FFDBEB"/>
		<stop  offset="1" style="stop-color:#FFE3F1"/>
	</linearGradient>
	<path class="st30" d="M114.5,248.4c-8.9-0.2-17.8-0.1-26.6,0.2c-4.5,5.6-9.1,11.2-13.6,16.7c-2,2.4-3.1,5.4-3.1,8.5
		c11.1,6.2,22.3,12.8,33.4,19.5c6.7-6.7,13.4-13.4,20.1-19.9c0-3.1-0.7-6.1-1.9-8.5C120,259.4,117.2,253.9,114.5,248.4L114.5,248.4z
		"/>
	
		<linearGradient id="SVGID_32_" gradientUnits="userSpaceOnUse" x1="57.1865" y1="80.3278" x2="149.3674" y2="172.5086" gradientTransform="matrix(1 0 0 -1 0 514)">
		<stop  offset="0" style="stop-color:#FF79A2"/>
		<stop  offset="0.2845" style="stop-color:#FFA1C0"/>
		<stop  offset="0.5908" style="stop-color:#FFC5DA"/>
		<stop  offset="0.8403" style="stop-color:#FFDBEB"/>
		<stop  offset="1" style="stop-color:#FFE3F1"/>
	</linearGradient>
	<path class="st31" d="M124.5,349.1c-6.7,15.8-13.4,31.7-19.9,47.3c0.8,0,1.5-0.1,2.2-0.4c17.7-6.8,30.8-25.9,31-45.5
		c0-0.7,0-1.5,0-2.2C133.3,348.6,128.9,348.9,124.5,349.1L124.5,349.1z"/>
	
		<linearGradient id="SVGID_33_" gradientUnits="userSpaceOnUse" x1="60.4211" y1="113.2695" x2="145.7043" y2="198.5523" gradientTransform="matrix(1 0 0 -1 0 514)">
		<stop  offset="0" style="stop-color:#FF79A2"/>
		<stop  offset="0.2845" style="stop-color:#FFA1C0"/>
		<stop  offset="0.5908" style="stop-color:#FFC5DA"/>
		<stop  offset="0.8403" style="stop-color:#FFDBEB"/>
		<stop  offset="1" style="stop-color:#FFE3F1"/>
	</linearGradient>
	<path class="st32" d="M71.3,348.2c0,0.7,0,1.5,0,2.2c0.2,19.6,13.3,38.7,31,45.5c0.7,0.3,1.5,0.4,2.2,0.4c0.5,0,0.9-0.1,1.3-0.4
		c10.6-6.6,18.5-24.5,18.6-44.7c0-0.8,0-1.5,0-2.3C106.7,349.9,89,349.6,71.3,348.2L71.3,348.2z"/>
	
		<linearGradient id="SVGID_34_" gradientUnits="userSpaceOnUse" x1="77.6657" y1="131.6774" x2="139.4822" y2="193.494" gradientTransform="matrix(1 0 0 -1 0 514)">
		<stop  offset="5.600000e-03" style="stop-color:#FF6E70"/>
		<stop  offset="0.1497" style="stop-color:#FF787B"/>
		<stop  offset="0.3998" style="stop-color:#FF9197"/>
		<stop  offset="0.7235" style="stop-color:#FFBBC5"/>
		<stop  offset="1" style="stop-color:#FFE3F1"/>
	</linearGradient>
	<path class="st33" d="M111.2,322.8c4.4,8.9,8.9,17.7,13.3,26.3c4.4-0.2,8.9-0.5,13.3-0.8c0-4.4,0.1-8.7,0.1-13.1
		C129,331.4,120.1,327.1,111.2,322.8L111.2,322.8z"/>
	
		<linearGradient id="SVGID_35_" gradientUnits="userSpaceOnUse" x1="61.0323" y1="135.0645" x2="145.1432" y2="219.175" gradientTransform="matrix(1 0 0 -1 0 514)">
		<stop  offset="5.600000e-03" style="stop-color:#FF6E70"/>
		<stop  offset="0.1497" style="stop-color:#FF787B"/>
		<stop  offset="0.3998" style="stop-color:#FF9197"/>
		<stop  offset="0.7235" style="stop-color:#FFBBC5"/>
		<stop  offset="1" style="stop-color:#FFE3F1"/>
	</linearGradient>
	<path class="st34" d="M124.6,315.9c-17.8,7-35.7,13.8-53.4,19.3c0,4.4,0.1,8.7,0.1,13.1c17.7,1.4,35.4,1.7,53.2,0.8
		C124.5,338,124.6,327,124.6,315.9L124.6,315.9z"/>
	
		<linearGradient id="SVGID_36_" gradientUnits="userSpaceOnUse" x1="39.2538" y1="245.7015" x2="115.7967" y2="322.2444" gradientTransform="matrix(1 0 0 -1 0 514)">
		<stop  offset="0" style="stop-color:#FF79A2"/>
		<stop  offset="0.2845" style="stop-color:#FFA1C0"/>
		<stop  offset="0.5908" style="stop-color:#FFC5DA"/>
		<stop  offset="0.8403" style="stop-color:#FFDBEB"/>
		<stop  offset="1" style="stop-color:#FFE3F1"/>
	</linearGradient>
	<path class="st35" d="M88.1,205.3c0-3.7-2.9-6.5-6.5-6.1c-3.6,0.4-6.6,3.7-6.6,7.3c-0.1,8-0.2,16.1-0.3,24.1c0,3.5,1.3,6.7,3.8,9
		c3.1,2.9,6.2,5.9,9.4,8.9C87.9,234.1,88,219.7,88.1,205.3z"/>
	
		<linearGradient id="SVGID_37_" gradientUnits="userSpaceOnUse" x1="91.3402" y1="258.4593" x2="142.3791" y2="309.4982" gradientTransform="matrix(1 0 0 -1 0 514)">
		<stop  offset="0" style="stop-color:#FF79A2"/>
		<stop  offset="0.2845" style="stop-color:#FFA1C0"/>
		<stop  offset="0.5908" style="stop-color:#FFC5DA"/>
		<stop  offset="0.8403" style="stop-color:#FFDBEB"/>
		<stop  offset="1" style="stop-color:#FFE3F1"/>
	</linearGradient>
	<path class="st36" d="M120.9,205.3c0-3.7,2.9-6.5,6.5-6.1c3.6,0.4,6.6,3.7,6.6,7.3c0.1,8,0.2,16.1,0.3,24.1c0,3.5-1.3,6.7-3.8,9
		c-3.1,2.9-6.2,5.9-9.4,8.9C121.1,234.1,121,219.7,120.9,205.3L120.9,205.3z"/>
	
		<linearGradient id="SVGID_38_" gradientUnits="userSpaceOnUse" x1="76.3248" y1="154.8121" x2="158.845" y2="237.3324" gradientTransform="matrix(1 0 0 -1 0 514)">
		<stop  offset="0" style="stop-color:#FFB5D3"/>
		<stop  offset="7.550000e-02" style="stop-color:#FFBDD8"/>
		<stop  offset="0.4714" style="stop-color:#FFE1ED"/>
		<stop  offset="0.7937" style="stop-color:#FFF7FA"/>
		<stop  offset="1" style="stop-color:#FFFFFF"/>
	</linearGradient>
	<path class="st37" d="M138,273.7c0.1,20.5,0,41-0.1,61.4c-4.4,0.3-8.9,0.5-13.3,0.6c-6.6-10.2-13.3-20.6-20-31.1
		c6.7-10.5,13.4-21,20.1-31.3C129,273.5,133.5,273.6,138,273.7L138,273.7z"/>
	
		<linearGradient id="SVGID_39_" gradientUnits="userSpaceOnUse" x1="19.993" y1="131.3953" x2="130.8725" y2="242.2749" gradientTransform="matrix(1 0 0 -1 0 514)">
		<stop  offset="0" style="stop-color:#FF79A2"/>
		<stop  offset="0.2845" style="stop-color:#FFA1C0"/>
		<stop  offset="0.5908" style="stop-color:#FFC5DA"/>
		<stop  offset="0.8403" style="stop-color:#FFDBEB"/>
		<stop  offset="1" style="stop-color:#FFE3F1"/>
	</linearGradient>
	<path class="st38" d="M71.1,273.7c-0.1,20.5,0,41,0.1,61.4c17.8,1.1,35.6,1.3,53.3,0.6c0.1-20.8,0.1-41.6,0.1-62.4
		C106.8,273,88.9,273.2,71.1,273.7L71.1,273.7z"/>
</g>
</svg>
