<?xml version="1.0" encoding="iso-8859-1"?>
<!-- Generator: Adobe Illustrator 19.0.0, SVG Export Plug-In . SVG Version: 6.00 Build 0)  -->
<svg version="1.1" id="Capa_1" xmlns="http://www.w3.org/2000/svg" xmlns:xlink="http://www.w3.org/1999/xlink" x="0px" y="0px"
	 viewBox="0 0 508.107 508.107" style="enable-background:new 0 0 508.107 508.107;" xml:space="preserve">
<g>
	<g>
		<path d="M253.9,173.654c-36.1,0-65.5,29.4-65.5,65.5c0,36.1,29.4,65.5,65.5,65.5c36.2,0,65.5-29.4,65.5-65.5
			C319.4,203.054,290,173.654,253.9,173.654z M253.9,288.354c-27.2,0-49.2-22-49.2-49.2s22.1-49.2,49.2-49.2
			c27.1,0,49.2,22,49.2,49.2S281.1,288.354,253.9,288.354z"/>
	</g>
</g>
<g>
	<g>
		<path d="M373.9,15.054l-82,142c0,0,55.1,24.1,52.2,90.2H508C510.2,170.754,479,75.954,373.9,15.054z M360.2,230.954
			c-2.6-32-19.6-61.4-46.1-79.6l65.7-113.7c66.8,41.8,108.9,114.7,111.6,193.3H360.2z"/>
	</g>
</g>
<g>
	<g>
		<path d="M216.1,157.054l-82-142C47.1,61.954,0,146.654,0,247.254h163.9C160.5,180.954,216.1,157.054,216.1,157.054z
			 M147.7,230.854H16.5c2.8-78.6,44.8-151.4,111.7-193.3l65.6,113.7C167.2,169.554,150.2,198.954,147.7,230.854z"/>
	</g>
</g>
<g>
	<g>
		<path d="M306.1,312.854c-21.6,13.3-59.1,27.4-104.2,0l-82,142c0,0,55.2,38.2,134,38.2c80.2,0,134.1-38.2,134.2-38.2L306.1,312.854
			z M142.3,448.754l65.7-113.7c28.7,13.8,63.2,13.8,91.9,0l65.6,113.7c-34.3,18.3-72.7,27.9-111.6,27.9
			C215,476.654,176.6,467.054,142.3,448.754z"/>
	</g>
</g>
<g>
</g>
<g>
</g>
<g>
</g>
<g>
</g>
<g>
</g>
<g>
</g>
<g>
</g>
<g>
</g>
<g>
</g>
<g>
</g>
<g>
</g>
<g>
</g>
<g>
</g>
<g>
</g>
<g>
</g>
</svg>
