<svg id="Capa_1" enable-background="new 0 0 512 512" height="512" viewBox="0 0 512 512" width="512" xmlns="http://www.w3.org/2000/svg" xmlns:xlink="http://www.w3.org/1999/xlink"><linearGradient id="SVGID_1_" gradientUnits="userSpaceOnUse" x1="74.981" x2="437.02" y1="437.019" y2="74.98"><stop offset=".1" stop-color="#ff195e"/><stop offset="1" stop-color="#ffc5a3"/></linearGradient><radialGradient id="SVGID_2_" cx="256.001" cy="256" gradientUnits="userSpaceOnUse" r="256"><stop offset="0" stop-color="#ff195e"/><stop offset=".093" stop-color="#ff2466" stop-opacity=".907"/><stop offset=".2545" stop-color="#ff417a" stop-opacity=".746"/><stop offset=".4652" stop-color="#ff6f9a" stop-opacity=".535"/><stop offset=".717" stop-color="#ffafc7" stop-opacity=".283"/><stop offset="1" stop-color="#fff" stop-opacity="0"/></radialGradient><linearGradient id="lg1"><stop offset="0" stop-color="#ff79a2"/><stop offset=".2845" stop-color="#ffa1c0"/><stop offset=".5908" stop-color="#ffc5da"/><stop offset=".8403" stop-color="#ffdbeb"/><stop offset="1" stop-color="#ffe3f1"/></linearGradient><linearGradient id="SVGID_3_" gradientUnits="userSpaceOnUse" x1="149.436" x2="448.472" xlink:href="#lg1" y1="232.405" y2="-66.63"/><linearGradient id="SVGID_4_" gradientUnits="userSpaceOnUse" x1="255.999" x2="255.999" y1="170.739" y2="78.014"><stop offset="0" stop-color="#ff195e"/><stop offset=".0695" stop-color="#ff3364" stop-opacity=".931"/><stop offset=".1512" stop-color="#ff4968" stop-opacity=".849"/><stop offset=".2478" stop-color="#ff5a6c" stop-opacity=".752"/><stop offset=".3672" stop-color="#ff656e" stop-opacity=".633"/><stop offset=".5348" stop-color="#ff6c70" stop-opacity=".465"/><stop offset="1" stop-color="#ff6e70" stop-opacity="0"/></linearGradient><linearGradient id="SVGID_5_" gradientUnits="userSpaceOnUse" x1="154.157" x2="338.858" xlink:href="#lg1" y1="202.496" y2="17.796"/><linearGradient id="SVGID_6_" gradientUnits="userSpaceOnUse" x1="-42.515" x2="372.583" xlink:href="#lg1" y1="525.1" y2="110.002"/><linearGradient id="SVGID_7_" gradientUnits="userSpaceOnUse" x1="134.909" x2="336.546" xlink:href="#lg1" y1="301.546" y2="99.909"/><linearGradient id="SVGID_8_" gradientUnits="userSpaceOnUse" x1="147.239" x2="358.994" xlink:href="#lg1" y1="573.25" y2="361.495"/><linearGradient id="SVGID_9_" gradientUnits="userSpaceOnUse" x1="154.669" x2="350.579" xlink:href="#lg1" y1="497.577" y2="301.668"/><linearGradient id="lg2"><stop offset=".0056" stop-color="#ff6e70"/><stop offset=".1497" stop-color="#ff787b"/><stop offset=".3998" stop-color="#ff9197"/><stop offset=".7235" stop-color="#ffbbc5"/><stop offset="1" stop-color="#ffe3f1"/></linearGradient><linearGradient id="SVGID_10_" gradientUnits="userSpaceOnUse" x1="194.283" x2="336.286" xlink:href="#lg2" y1="455.291" y2="313.288"/><linearGradient id="SVGID_11_" gradientUnits="userSpaceOnUse" x1="156.073" x2="349.29" xlink:href="#lg2" y1="447.51" y2="254.294"/><linearGradient id="SVGID_12_" gradientUnits="userSpaceOnUse" x1="106.044" x2="281.876" xlink:href="#lg1" y1="193.358" y2="17.526"/><linearGradient id="SVGID_13_" gradientUnits="userSpaceOnUse" x1="225.696" x2="342.941" xlink:href="#lg1" y1="164.052" y2="46.807"/><linearGradient id="SVGID_14_" gradientUnits="userSpaceOnUse" x1="191.203" x2="380.766" y1="402.147" y2="212.584"><stop offset="0" stop-color="#ffb5d3"/><stop offset=".0755" stop-color="#ffbdd8"/><stop offset=".4714" stop-color="#ffe1ed"/><stop offset=".7937" stop-color="#fff7fa"/><stop offset="1" stop-color="#fff"/></linearGradient><linearGradient id="SVGID_15_" gradientUnits="userSpaceOnUse" x1="61.799" x2="316.508" xlink:href="#lg1" y1="455.939" y2="201.23"/><g><circle cx="256" cy="256" fill="url(#SVGID_1_)" r="256"/><circle cx="256" cy="256" fill="url(#SVGID_2_)" r="256"/><path d="m294.33 178.575c-25.554-.633-51.108-.633-76.663 0 .028-10.188.061-20.375.1-30.563-5.02-20.198-9.986-40.261-14.873-60.129 35.403-2.711 70.806-2.711 106.209 0-4.887 19.867-9.854 39.931-14.873 60.129.039 10.188.072 20.375.1 30.563z" fill="url(#SVGID_3_)"/><path d="m294.33 178.575c-25.554-.633-51.108-.633-76.663 0 .084-30.563.217-61.125.4-91.688 25.288-1.383 50.576-1.383 75.863 0 .183 30.563.317 61.125.4 91.688z" fill="url(#SVGID_4_)"/><path d="m278.605 47.87c-.067-12.69-10.191-23.522-22.606-23.52-12.414-.002-22.539 10.831-22.606 23.52-.168 38.353-.29 76.706-.365 115.06 15.314-.273 30.628-.273 45.942 0-.075-38.354-.197-76.706-.365-115.06z" fill="url(#SVGID_5_)"/><path d="m325.587 186.349c-10.469-12.7-20.928-25.529-31.357-38.337-5.097-.177-10.195-.318-15.292-.424.067 29.272.107 58.543.119 87.815 17.93-10.157 35.846-20.127 53.725-29.542-.025-7.014-2.575-13.905-7.195-19.512z" fill="url(#SVGID_6_)"/><path d="m278.938 147.588c-20.39-.424-40.78-.283-61.17.424-10.428 12.807-20.887 25.637-31.356 38.337-4.62 5.607-7.17 12.496-7.195 19.512 25.539 14.164 51.159 29.497 76.784 44.872 15.375-15.375 30.746-30.735 46.069-45.674-.015-7.129-1.547-14.068-4.317-19.623-6.282-12.587-12.558-25.221-18.815-37.848z" fill="url(#SVGID_7_)"/><path d="m301.802 378.936c-15.454 36.286-30.802 72.839-45.802 108.714 1.728 0 3.455-.309 5.108-.928 40.657-15.575 70.696-59.451 71.182-104.58.016-1.714.031-3.428.047-5.142-10.178.807-20.356 1.452-30.535 1.936z" fill="url(#SVGID_8_)"/><path d="m179.662 377c.015 1.714.031 3.428.047 5.142.485 45.13 30.526 89.006 71.183 104.581 1.654.618 3.38.927 5.108.928 1.037 0 2.074-.304 3.065-.911 24.395-15.083 42.417-56.368 42.709-102.579.01-1.741.019-3.483.028-5.224-40.713 1.935-81.427 1.29-122.14-1.937z" fill="url(#SVGID_9_)"/><path d="m271.347 318.464c10.214 20.398 20.383 40.636 30.455 60.472 10.178-.484 20.357-1.129 30.535-1.936.089-10 .167-20 .233-30-20.351-8.787-40.768-18.459-61.223-28.536z" fill="url(#SVGID_10_)"/><path d="m302.078 302.736c-40.989 15.976-81.912 31.69-122.649 44.264.067 10 .145 20 .234 30 40.713 3.227 81.427 3.872 122.14 1.936.133-25.4.225-50.8.275-76.2z" fill="url(#SVGID_11_)"/><path d="m218.322 48.684c.057-8.443-6.615-14.828-14.908-13.97-8.293.853-15.118 8.514-15.234 16.819-.247 18.445-.46 36.891-.64 55.336-.079 7.995 3.062 15.379 8.744 20.687 7.14 6.67 14.303 13.503 21.484 20.457.126-33.11.311-66.219.554-99.329z" fill="url(#SVGID_12_)"/><path d="m293.676 48.684c-.057-8.443 6.615-14.828 14.908-13.97 8.291.854 15.118 8.513 15.234 16.819.247 18.445.46 36.891.64 55.336.078 7.993-3.063 15.379-8.744 20.687-7.14 6.67-14.303 13.503-21.484 20.457-.126-33.11-.311-66.219-.554-99.329z" fill="url(#SVGID_13_)"/><path d="m332.783 205.86c.173 47.047.103 94.093-.212 141.14-10.209.607-20.419 1.092-30.628 1.456-15.22-23.354-30.571-47.404-45.943-71.515 15.372-24.111 30.765-48.284 46.07-71.883 10.237.2 20.475.468 30.713.802z" fill="url(#SVGID_14_)"/><path d="m179.217 205.86c-.173 47.047-.103 94.093.212 141.14 40.838 2.427 81.676 2.912 122.514 1.456.188-47.799.231-95.599.127-143.398-40.951-.802-81.902-.535-122.853.802z" fill="url(#SVGID_15_)"/></g></svg>