<?xml version="1.0" encoding="iso-8859-1"?>
<!-- Generator: Adobe Illustrator 19.0.0, SVG Export Plug-In . SVG Version: 6.00 Build 0)  -->
<svg version="1.1" id="Capa_1" xmlns="http://www.w3.org/2000/svg" xmlns:xlink="http://www.w3.org/1999/xlink" x="0px" y="0px"
	 viewBox="0 0 512 512" style="enable-background:new 0 0 512 512;" xml:space="preserve">
<g>
	<g>
		<path d="M510.894,408.998c-1.889-5.95-5.982-10.808-11.524-13.68l-185.472-96.097c1.824-16.942-3.73-34.535-16.688-47.495
			c-3.901-3.901-8.23-7.116-12.827-9.678l13.69-23.726c11.437-19.823,14.788-42.995,9.434-65.247l-31.773-132.03
			c-2.536-10.54-11.88-17.902-22.721-17.902c-12.886,0-23.37,10.484-23.37,23.37v214.461c-5.353,2.711-10.376,6.286-14.844,10.753
			c-10.992,10.993-16.649,25.32-17.004,39.756l-32.92,0.516c-22.884,0.359-44.49,9.377-60.839,25.394L7.034,412.428
			c-7.745,7.587-9.268,19.383-3.703,28.689c3.204,5.357,8.302,9.146,14.356,10.669c1.903,0.478,3.828,0.715,5.741,0.715
			c4.171,0,8.281-1.126,11.954-3.323l184.64-110.429c10.521,8.273,23.248,12.425,35.982,12.425c9.199,0,18.396-2.167,26.761-6.484
			l14.817,23.146c12.339,19.275,31.372,32.91,53.592,38.393l131.848,32.529c1.883,0.465,3.776,0.689,5.644,0.689
			c8.571,0,16.608-4.724,20.703-12.628C512.24,421.277,512.782,414.948,510.894,408.998z M244.668,26.513L244.668,26.513
			c0.001-4.601,3.745-8.344,8.345-8.344c3.871,0,7.207,2.628,8.112,6.392l31.772,132.03c4.45,18.492,1.666,37.749-7.839,54.222
			l-14.785,25.623c-1.886-0.477-3.79-0.832-5.702-1.117c-0.088-0.013-0.175-0.029-0.263-0.041c-0.902-0.13-1.805-0.236-2.711-0.324
			c-0.003,0-0.006,0-0.009-0.001c-1.866-0.181-3.736-0.299-5.607-0.299c-3.791,0-7.578,0.371-11.313,1.112V26.513z M27.67,436.283
			c-1.913,1.144-4.155,1.475-6.318,0.931c-2.162-0.543-3.981-1.896-5.126-3.809c-1.987-3.322-1.443-7.534,1.323-10.243
			l97.003-95.036c13.586-13.31,31.542-20.805,50.558-21.103l34.219-0.537c1.821,7.714,5.167,14.883,9.896,21.213L27.67,436.283z
			 M293.824,313.886c-0.374,0.675-0.765,1.34-1.176,1.994c-0.106,0.169-0.209,0.34-0.317,0.508
			c-0.505,0.781-1.032,1.548-1.588,2.296c-0.085,0.114-0.176,0.225-0.262,0.339c-0.484,0.639-0.988,1.264-1.509,1.876
			c-0.154,0.181-0.308,0.363-0.465,0.542c-0.62,0.706-1.256,1.4-1.924,2.068c-0.038,0.038-0.079,0.074-0.117,0.112
			c-0.42,0.417-0.848,0.824-1.282,1.221c-0.388,0.353-0.785,0.7-1.189,1.041c-0.064,0.055-0.127,0.111-0.191,0.165
			c-0.952,0.796-1.945,1.56-2.976,2.284c-0.029,0.02-0.054,0.044-0.082,0.064c-7.205,5.048-15.76,7.778-24.741,7.778
			c-11.251,0-21.838-4.278-29.929-12.047c-0.01-0.01-0.018-0.021-0.029-0.031l-0.369-0.348c-0.08-0.076-0.163-0.151-0.242-0.23
			c-0.004-0.003-0.008-0.007-0.012-0.011c-0.493-0.493-0.968-0.996-1.431-1.506c-0.115-0.126-0.225-0.256-0.339-0.384
			c-0.363-0.408-0.719-0.82-1.063-1.239c-0.092-0.111-0.181-0.223-0.272-0.335c-0.392-0.486-0.775-0.977-1.142-1.476
			c-0.025-0.034-0.051-0.068-0.076-0.102c-4.24-5.788-6.858-12.4-7.858-19.207c-0.015-0.105-0.029-0.211-0.044-0.317
			c-1.808-12.981,2.264-26.632,12.224-36.593c8.432-8.431,19.505-12.646,30.58-12.646c3.411,0,6.821,0.403,10.154,1.203
			c0.111,0.027,0.221,0.054,0.331,0.082c0.511,0.127,1.02,0.265,1.526,0.411c0.209,0.06,0.417,0.122,0.626,0.185
			c0.41,0.125,0.819,0.258,1.226,0.395c0.278,0.094,0.555,0.189,0.831,0.289c5.801,2.086,11.244,5.442,15.884,10.081
			c10.855,10.855,14.71,26.091,11.589,40.069c-0.148,0.66-0.31,1.315-0.488,1.965c-0.066,0.241-0.124,0.483-0.194,0.723
			c-0.245,0.837-0.517,1.664-0.811,2.482c-0.089,0.248-0.185,0.494-0.279,0.741c-0.258,0.68-0.533,1.353-0.825,2.017
			c-0.084,0.191-0.162,0.384-0.249,0.575c-0.376,0.824-0.779,1.634-1.206,2.432C294.025,313.533,293.923,313.708,293.824,313.886z
			 M496.028,419.907c-1.781,3.436-5.647,5.188-9.408,4.262L354.774,391.64c-18.466-4.556-34.283-15.887-44.537-31.905L295.12,336.12
			c0.708-0.642,1.406-1.303,2.09-1.986c1.435-1.435,2.778-2.928,4.032-4.47c0.009-0.012,0.018-0.024,0.027-0.035
			c0.617-0.761,1.213-1.533,1.787-2.317c0.1-0.136,0.19-0.278,0.289-0.415c0.476-0.663,0.945-1.329,1.39-2.007
			c0.161-0.246,0.309-0.499,0.466-0.747c0.365-0.576,0.731-1.151,1.074-1.737c0.2-0.34,0.383-0.689,0.576-1.034
			c0.28-0.501,0.565-1.001,0.829-1.509c0.219-0.42,0.42-0.848,0.628-1.273c0.215-0.439,0.435-0.875,0.638-1.318
			c0.224-0.488,0.43-0.983,0.641-1.477c0.165-0.387,0.335-0.773,0.491-1.163c0.052-0.129,0.112-0.255,0.162-0.385l182.218,94.411
			c1.979,1.025,3.44,2.76,4.114,4.884C497.247,415.668,497.053,417.928,496.028,419.907z"/>
	</g>
</g>
<g>
	<g>
		<path d="M306.377,500.642l-12.27-130.749c-0.387-4.132-4.054-7.167-8.182-6.778c-4.131,0.388-7.165,4.051-6.777,8.182
			l11.499,122.534H221.35l11.339-122.544c0.382-4.132-2.657-7.791-6.788-8.173c-4.125-0.377-7.791,2.657-8.173,6.789L205.63,500.652
			c-0.195,2.104,0.506,4.193,1.929,5.754c1.423,1.561,3.438,2.451,5.551,2.451h85.788c2.115,0,4.131-0.891,5.555-2.455
			C305.876,504.839,306.575,502.747,306.377,500.642z"/>
	</g>
</g>
<g>
</g>
<g>
</g>
<g>
</g>
<g>
</g>
<g>
</g>
<g>
</g>
<g>
</g>
<g>
</g>
<g>
</g>
<g>
</g>
<g>
</g>
<g>
</g>
<g>
</g>
<g>
</g>
<g>
</g>
</svg>
